<?xml version="1.0" encoding="utf-8"?>
<!-- Generator: Adobe Illustrator 25.4.1, SVG Export Plug-In . SVG Version: 6.00 Build 0)  -->
<svg version="1.1" id="Layer_1" xmlns="http://www.w3.org/2000/svg" xmlns:xlink="http://www.w3.org/1999/xlink" x="0px" y="0px"
	 viewBox="0 0 2834.65 2834.65" style="enable-background:new 0 0 2834.65 2834.65;" xml:space="preserve">
<style type="text/css">
	.st0{clip-path:url(#SVGID_00000025405686364883470730000017015016127940212911_);}
	.st1{fill:#EE8384;}
	.st2{fill:none;stroke:#CD2027;stroke-width:100;stroke-linecap:round;stroke-linejoin:round;}
	.st3{fill:#EE8384;stroke:#CD2027;stroke-width:100;stroke-miterlimit:10;}
</style>
<g>
	<defs>
		<rect id="SVGID_1_" x="0" y="0" width="2834.65" height="2834.65"/>
	</defs>
	<clipPath id="SVGID_00000081621209645244067010000010128395391374812600_">
		<use xlink:href="#SVGID_1_"  style="overflow:visible;"/>
	</clipPath>
	<g style="clip-path:url(#SVGID_00000081621209645244067010000010128395391374812600_);">
		<path class="st1" d="M220.31,2693.91h689.27v-668.84c0-142.57-115.57-258.14-258.14-258.14H220.31V2693.91z"/>
		<path class="st1" d="M1727.96,2681.45h689.27V1996.5c0-133.67-108.36-242.03-242.03-242.03h-447.24V2681.45z"/>
		<line class="st2" x1="2175.74" y1="2694.54" x2="644.72" y2="2694.54"/>
		<polyline class="st2" points="651.81,1385.78 651.81,610.02 1417.01,140.1 2182.83,610.02 2182.83,1385.78 		"/>
		<path class="st2" d="M321.1,1591.55h661.26c65.19,0,118.11,52.92,118.11,118.11v984.25H202.99v-984.25
			C202.99,1644.47,255.91,1591.55,321.1,1591.55L321.1,1591.55z"/>
		<path class="st2" d="M652.12,2081.79c42.99,0,84.88,17.33,115.59,48.04c30.71,30.71,47.4,72.59,47.4,116.22v448.51H488.97v-448.51
			c-0.47-43.62,16.7-85.51,47.4-116.22C567.24,2099.11,608.34,2081.79,652.12,2081.79L652.12,2081.79z"/>
		<path class="st3" d="M1291.4,1001.91h243.67c47.28,0,85.6-38.32,85.6-85.6V743.59c0-47.28-38.32-85.6-85.6-85.6H1291.4
			c-47.28,0-85.6,38.32-85.6,85.6v172.72C1205.8,963.58,1244.12,1001.91,1291.4,1001.91z"/>
		<path class="st3" d="M1290.21,1474.12h262.41c42.1,0,76.23-34.13,76.23-76.23v-191.46c0-42.1-34.13-76.23-76.23-76.23h-262.41
			c-42.1,0-76.23,34.13-76.23,76.23v191.46C1213.98,1439.99,1248.11,1474.12,1290.21,1474.12z"/>
		<path class="st2" d="M2182.52,2081.79c89.92,0,163.15,73.23,163.15,163.15v448.97h-326.14v-448.97
			C2019.53,2155.01,2092.76,2081.79,2182.52,2081.79L2182.52,2081.79z"/>
		<path class="st2" d="M2631.65,2694.54h-897.48v-984.89c0-65.19,52.91-118.11,118.11-118.11h661.26
			c65.19,0,118.11,52.92,118.11,118.11V2694.54z"/>
	</g>
</g>
</svg>
