<?xml version="1.0" encoding="utf-8"?>
<!-- Generator: Adobe Illustrator 25.4.1, SVG Export Plug-In . SVG Version: 6.00 Build 0)  -->
<svg version="1.1" id="Layer_1" xmlns="http://www.w3.org/2000/svg" xmlns:xlink="http://www.w3.org/1999/xlink" x="0px" y="0px"
	 viewBox="0 0 2834.65 2834.65" style="enable-background:new 0 0 2834.65 2834.65;" xml:space="preserve">
<style type="text/css">
	.st0{clip-path:url(#SVGID_00000005974992926843311060000003128288436007535508_);fill:#EE8384;}
	.st1{clip-path:url(#SVGID_00000005974992926843311060000003128288436007535508_);}
	.st2{fill:#EE8384;}
	
		.st3{clip-path:url(#SVGID_00000005974992926843311060000003128288436007535508_);fill:none;stroke:#D51F26;stroke-width:100;stroke-linecap:round;stroke-linejoin:round;}
</style>
<g>
	<g>
		<defs>
			<rect id="SVGID_1_" x="-98.25" y="70.15" width="3031.15" height="2694.35"/>
		</defs>
		<clipPath id="SVGID_00000106865521669147175550000004415371043300058240_">
			<use xlink:href="#SVGID_1_"  style="overflow:visible;"/>
		</clipPath>
		
			<rect x="795.33" y="562.28" style="clip-path:url(#SVGID_00000106865521669147175550000004415371043300058240_);fill:#EE8384;" width="499.02" height="327.93"/>
		<g style="clip-path:url(#SVGID_00000106865521669147175550000004415371043300058240_);">
			<polygon class="st2" points="1773.42,1219.35 2433.54,1635.17 1731.35,1635.17 1731.35,1205.47 			"/>
			<rect x="1733.42" y="1635.17" class="st2" width="700.12" height="899.58"/>
		</g>
		
			<path style="clip-path:url(#SVGID_00000106865521669147175550000004415371043300058240_);fill:none;stroke:#D51F26;stroke-width:100;stroke-linecap:round;stroke-linejoin:round;" d="
			M343.79,2561.91V399.03c0-69.72,56.58-126.3,126.3-126.3h1147.79c69.72,0,126.3,56.58,126.3,126.3v473.02 M2490.85,2561.91H983.87
			V1462.79l754.42-590.74l752.57,590.74V2561.91z M162.93,2561.91h2508.78 M913.48,530.54h262.36c69.72,0,126.3,56.59,126.3,126.3
			v104.07c0,69.71-56.58,126.3-126.3,126.3H913.48c-69.72,0-126.3-56.59-126.3-126.3V656.84
			C787.18,587.13,843.76,530.54,913.48,530.54L913.48,530.54z M913.48,530.54 M1871.83,1592.96h-267.76 M1427.26,2561.91v-602.52
			h620.21v602.52 M1738.28,1959.39v602.52"/>
	</g>
</g>
</svg>
